<svg width="100" height="100" viewBox="0 0 100 100" fill="none" xmlns="http://www.w3.org/2000/svg">
<path d="M49.9999 91.6668V44.5M62.4999 70.8335H66.6665C71.8326 70.8376 76.816 68.9222 80.6494 65.459C84.4828 61.9958 86.8927 57.2318 87.4114 52.0918C87.4649 51.5609 87.4979 51.03 87.5107 50.5M37.4999 70.8335H33.3332C28.1791 70.8174 23.2138 68.8922 19.3961 65.4295C15.5785 61.9669 13.1792 57.2125 12.6618 52.0844C12.1443 46.9564 13.5453 41.8185 16.5942 37.6629C19.6432 33.5073 24.1238 30.6289 29.1707 29.5835C29.1707 18.0752 37.4999 8.3335 49.9999 8.3335C51.5683 8.3335 53.0711 8.48687 54.5 8.77786M49.9999 67.5002L60.4165 57.0835M49.9999 59.1668L39.5832 48.7502" stroke="#329672" stroke-width="5" stroke-linecap="round" stroke-linejoin="round"/>
<path d="M81.7084 34.7082L87.8062 40.806M85.6667 24.4165C85.6667 20.6372 84.1654 17.0126 81.493 14.3402C78.8206 11.6678 75.1961 10.1665 71.4167 10.1665C67.6374 10.1665 64.0129 11.6678 61.3405 14.3402C58.6681 17.0126 57.1667 20.6372 57.1667 24.4165C57.1667 28.1958 58.6681 31.8204 61.3405 34.4928C64.0129 37.1652 67.6374 38.6665 71.4167 38.6665C75.1961 38.6665 78.8206 37.1652 81.493 34.4928C84.1654 31.8204 85.6667 28.1958 85.6667 24.4165Z" stroke="#4CAC85" stroke-width="5" stroke-linecap="round" stroke-linejoin="round"/>
</svg>
